<svg xmlns="http://www.w3.org/2000/svg" viewBox="0 0 32 32" width="32" height="32">
  <rect width="32" height="32" rx="7" fill="#0c1120"/>
  <!-- outer flame -->
  <path d="M16 3
    C16 3 22 9 22 15
    C22 18 20.5 19.5 19 20.5
    C19.5 18 19 15.5 17 13
    C17 13 17 17 15 19
    C13.5 17.5 13 15.5 13 15
    C11 17.5 10 19.5 10 22
    C10 26 12.7 29 16 29
    C19.3 29 22 26 22 22
    C22 22 24 20 24 17
    C24 10 16 3 16 3Z"
    fill="#f97316"/>
  <!-- inner flame -->
  <path d="M16 14
    C16 14 18.5 17 18.5 20.5
    C18.5 22 17.5 23.5 16 24
    C14.5 23.5 13.5 22 13.5 20.5
    C13.5 18 15 16 16 14Z"
    fill="#f59e0b"/>
  <!-- hot core -->
  <path d="M16 19
    C16 19 17.2 20 17.2 21.2
    C17.2 22 16.7 22.8 16 23
    C15.3 22.8 14.8 22 14.8 21.2
    C14.8 20 16 19 16 19Z"
    fill="#fef3c7"/>
</svg>
